<?xml version="1.0" encoding="utf-8"?>
<!-- Generator: Adobe Illustrator 15.0.0, SVG Export Plug-In . SVG Version: 6.00 Build 0)  -->
<!DOCTYPE svg PUBLIC "-//W3C//DTD SVG 1.1//EN" "http://www.w3.org/Graphics/SVG/1.1/DTD/svg11.dtd">
<svg version="1.1" id="Layer_1" xmlns="http://www.w3.org/2000/svg" xmlns:xlink="http://www.w3.org/1999/xlink" x="0px" y="0px"
	 width="435.569px" height="390px" viewBox="0 0 435.569 390" enable-background="new 0 0 435.569 390" xml:space="preserve">
<path fill="#B02C22" d="M394.664,197.566c41.231-42.25,41.215-110.712,0-152.944c-21.061-21.59-48.821-32.146-76.395-31.693
	c-38.616,0.667-102.302,53.026-102.302,53.026S150.506,12.861,110.94,12.913c-26.958,0.06-53.898,10.616-74.445,31.71
	c-41.206,42.231-41.224,110.694,0,152.944l179.089,183.49L394.664,197.566z"/>
<g>
	<path fill="#E13930" d="M47.464,34.039c1.67-0.077,3.341-0.123,5.012-0.126c43.522-0.057,115.53,58.348,115.53,58.348
		s18.461-15.177,42.175-30.049C194.403,50.123,143.088,12.87,109.94,12.913C87.949,12.961,65.971,19.998,47.464,34.039z"/>
	<path fill="#E13930" d="M393.664,44.623c-21.061-21.59-48.821-32.146-76.395-31.693c-20.529,0.354-48.143,15.318-69.507,29.258
		c11.596-4.856,22.927-8.086,32.775-8.256c30.331-0.499,60.868,11.112,84.034,34.862c35.706,36.586,43.294,91.066,22.755,135.265
		l6.337-6.492C434.896,155.316,434.879,86.854,393.664,44.623z"/>
</g>
</svg>
