<svg style="display: none;"><symbol viewBox="0 0 435.569 390" id="shape-heart"><title>heart</title> <path fill="#B02C22" d="M394.664,197.566c41.231-42.25,41.215-110.712,0-152.944c-21.061-21.59-48.821-32.146-76.395-31.693
	c-38.616,0.667-102.302,53.026-102.302,53.026S150.506,12.861,110.94,12.913c-26.958,0.06-53.898,10.616-74.445,31.71
	c-41.206,42.231-41.224,110.694,0,152.944l179.089,183.49L394.664,197.566z"/> <g> <path fill="#E13930" d="M47.464,34.039c1.67-0.077,3.341-0.123,5.012-0.126c43.522-0.057,115.53,58.348,115.53,58.348
		s18.461-15.177,42.175-30.049C194.403,50.123,143.088,12.87,109.94,12.913C87.949,12.961,65.971,19.998,47.464,34.039z"/> <path fill="#E13930" d="M393.664,44.623c-21.061-21.59-48.821-32.146-76.395-31.693c-20.529,0.354-48.143,15.318-69.507,29.258
		c11.596-4.856,22.927-8.086,32.775-8.256c30.331-0.499,60.868,11.112,84.034,34.862c35.706,36.586,43.294,91.066,22.755,135.265
		l6.337-6.492C434.896,155.316,434.879,86.854,393.664,44.623z"/> </g> </symbol><symbol viewBox="0 0 339 295" id="shape-hearto"><title>Path 1</title><desc>Created with Sketch.</desc> <!-- Generator: Sketch 3.0.4 (8053) - http://www.bohemiancoding.com/sketch -->    <g id="svgstore029e5ba5c8f7ecb84ec43e869d1e34ebPage-1" stroke="none" stroke-width="1" fill="none" fill-rule="evenodd" sketch:type="MSPage"> <path d="M10.750006,105.999998 C47.0000019,186.000005 168.592391,289.593755 168.592391,289.593755 C168.592391,289.593755 280.880355,198.239311 326.999999,105.999997 C366.999987,25.9999992 226.190043,-47.5703097 168.592384,52.7773464 C109.472658,-47.5703081 -25.4999898,25.9999921 10.750006,105.999998 Z" id="svgstore029e5ba5c8f7ecb84ec43e869d1e34ebPath-1" stroke="#CF7B7B" stroke-width="8" sketch:type="MSShapeGroup"/> </g> </symbol></svg>